<?xml version="1.0" standalone="no"?>
<!DOCTYPE svg PUBLIC "-//W3C//DTD SVG 20010904//EN"
 "http://www.w3.org/TR/2001/REC-SVG-20010904/DTD/svg10.dtd">
<svg version="1.0" xmlns="http://www.w3.org/2000/svg"
 width="100.000000pt" height="100.000000pt" viewBox="0 0 100.000000 100.000000"
 preserveAspectRatio="xMidYMid meet">

<g transform="translate(0.000000,100.000000) scale(0.100000,-0.100000)"
fill="#000000" stroke="none">
<path d="M285 945 c-148 -30 -273 -54 -277 -54 -5 -1 -8 -176 -8 -390 l0 -389
23 -5 c92 -23 560 -106 568 -102 5 4 9 31 9 61 l0 54 178 0 c125 0 182 4 190
12 17 17 17 719 0 736 -8 8 -65 12 -190 12 l-177 0 -3 58 c-3 49 -6 57 -23 59
-11 0 -141 -23 -290 -52z m275 -444 l0 -458 -137 27 c-76 15 -193 38 -260 50
l-123 22 0 358 0 358 123 22 c100 19 385 75 395 79 1 1 2 -205 2 -458z m380
-1 l0 -340 -170 0 -170 0 0 50 0 50 40 0 c33 0 40 3 40 20 0 17 -7 20 -40 20
l-40 0 0 60 0 60 40 0 c33 0 40 3 40 20 0 17 -7 20 -40 20 l-40 0 0 50 0 50
40 0 c33 0 40 3 40 20 0 17 -7 20 -40 20 l-40 0 0 50 0 50 40 0 c33 0 40 3 40
20 0 17 -7 20 -40 20 l-40 0 0 50 0 50 170 0 170 0 0 -340z"/>
<path d="M140 684 c0 -4 23 -47 51 -96 l51 -89 -56 -88 c-31 -49 -56 -92 -56
-95 0 -4 21 -6 48 -4 l47 3 36 69 37 70 36 -72 36 -72 51 0 51 0 -23 38 c-12
20 -38 61 -56 90 -18 29 -33 57 -33 62 0 5 22 46 50 92 27 46 50 86 50 91 0 4
-19 7 -43 7 l-43 0 -36 -70 -37 -70 -33 67 -33 68 -47 3 c-27 2 -48 0 -48 -4z"/>
<path d="M720 720 c0 -18 7 -20 80 -20 73 0 80 2 80 20 0 18 -7 20 -80 20 -73
0 -80 -2 -80 -20z"/>
<path d="M720 580 c0 -18 7 -20 80 -20 73 0 80 2 80 20 0 18 -7 20 -80 20 -73
0 -80 -2 -80 -20z"/>
<path d="M720 440 c0 -18 7 -20 80 -20 73 0 80 2 80 20 0 18 -7 20 -80 20 -73
0 -80 -2 -80 -20z"/>
<path d="M720 280 c0 -18 7 -20 80 -20 73 0 80 2 80 20 0 18 -7 20 -80 20 -73
0 -80 -2 -80 -20z"/>
</g>
</svg>
