<?xml version="1.0" standalone="no"?>
<!DOCTYPE svg PUBLIC "-//W3C//DTD SVG 20010904//EN"
 "http://www.w3.org/TR/2001/REC-SVG-20010904/DTD/svg10.dtd">
<svg version="1.0" xmlns="http://www.w3.org/2000/svg"
 width="512.000000pt" height="512.000000pt" viewBox="0 0 512.000000 512.000000"
 preserveAspectRatio="xMidYMid meet">

<g transform="translate(0.000000,512.000000) scale(0.100000,-0.100000)"
fill="#000000" stroke="none">
<path d="M402 5102 c-116 -46 -180 -185 -139 -300 7 -18 61 -100 121 -182
l109 -150 2066 0 2067 0 91 123 c143 192 169 257 142 354 -17 62 -96 143 -155
161 -32 9 -522 12 -2150 11 -1959 0 -2112 -1 -2152 -17z"/>
<path d="M732 4147 c9 -12 273 -373 588 -801 315 -429 580 -796 589 -815 14
-32 17 -152 21 -1191 l5 -1155 24 -48 c27 -56 94 -110 159 -128 49 -13 128 -7
169 14 27 14 384 276 598 438 178 135 251 211 286 299 11 29 15 189 19 890 5
814 6 857 24 890 10 19 278 388 595 820 318 432 580 791 585 798 6 9 -364 12
-1835 12 l-1841 0 14 -23z"/>
</g>
</svg>
