<?xml version="1.0" standalone="no"?>
<!DOCTYPE svg PUBLIC "-//W3C//DTD SVG 20010904//EN"
 "http://www.w3.org/TR/2001/REC-SVG-20010904/DTD/svg10.dtd">
<svg version="1.0" xmlns="http://www.w3.org/2000/svg"
 width="512.000000pt" height="512.000000pt" viewBox="0 0 512.000000 512.000000"
 preserveAspectRatio="xMidYMid meet">

<g transform="translate(0.000000,512.000000) scale(0.100000,-0.100000)"
fill="#000000" stroke="none">
<path d="M1410 5110 c-992 -94 -1620 -636 -1344 -1160 160 -305 600 -536 1184
-621 203 -30 602 -33 805 -6 771 103 1290 477 1262 907 -27 420 -528 762
-1267 866 -128 18 -510 26 -640 14z"/>
<path d="M0 3392 c0 -171 14 -244 66 -342 187 -357 767 -613 1462 -646 l141
-7 39 84 c75 163 182 322 316 473 58 65 66 78 46 73 -65 -16 -350 -29 -510
-24 -608 22 -1122 184 -1472 466 l-88 70 0 -147z"/>
<path d="M3287 3289 c-560 -65 -1052 -412 -1298 -914 -176 -362 -215 -776
-109 -1164 211 -769 962 -1283 1755 -1201 738 75 1324 622 1462 1363 23 128
23 426 0 554 -94 501 -382 910 -820 1161 -286 163 -661 240 -990 201z m333
-752 l0 -164 52 -24 c128 -59 247 -239 248 -371 l0 -28 -150 0 c-128 0 -150 2
-150 15 0 9 -9 34 -20 55 -23 45 -80 80 -130 80 -76 0 -150 -74 -150 -150 0
-76 76 -150 153 -150 112 0 228 -50 312 -134 180 -181 178 -458 -4 -636 -31
-30 -80 -66 -109 -79 l-52 -24 0 -164 0 -163 -150 0 -150 0 0 163 0 164 -52
24 c-128 59 -247 239 -248 372 l0 27 150 0 c128 0 150 -2 150 -15 0 -9 9 -34
20 -55 23 -45 80 -80 130 -80 76 0 150 74 150 150 0 78 -74 150 -154 150 -110
0 -226 51 -311 135 -180 178 -179 457 4 635 31 30 80 66 109 79 l52 24 0 164
0 163 150 0 150 0 0 -163z"/>
<path d="M0 2493 c0 -173 14 -245 67 -345 45 -85 152 -202 258 -281 93 -69
298 -172 441 -221 194 -66 446 -116 664 -132 l95 -6 1 173 c1 129 7 205 23
293 12 66 19 121 16 124 -3 3 -63 9 -133 14 -551 37 -1032 203 -1359 469 l-73
59 0 -147z"/>
<path d="M0 1593 c0 -172 14 -245 66 -343 192 -366 789 -623 1505 -647 96 -3
191 -3 211 1 l36 7 -74 142 c-66 128 -164 383 -164 429 0 19 -25 23 -180 33
-142 9 -354 42 -508 80 -331 81 -601 209 -819 386 l-73 59 0 -147z"/>
</g>
</svg>
