<?xml version="1.0" encoding="UTF-8"?>
<!DOCTYPE svg PUBLIC "-//W3C//DTD SVG 1.1//EN" "http://www.w3.org/Graphics/SVG/1.1/DTD/svg11.dtd">
<svg xmlns="http://www.w3.org/2000/svg" version="1.1" width="512px" height="512px" style="shape-rendering:geometricPrecision; text-rendering:geometricPrecision; image-rendering:optimizeQuality; fill-rule:evenodd; clip-rule:evenodd" xmlns:xlink="http://www.w3.org/1999/xlink">
<g><path style="opacity:0.991" fill="#000000" d="M 186.5,-0.5 C 192.5,-0.5 198.5,-0.5 204.5,-0.5C 220.754,3.48836 232.088,13.3217 238.5,29C 255.833,29.3333 273.167,29.6667 290.5,30C 299.678,33.8633 302.845,40.6966 300,50.5C 292.191,74.0931 284.691,97.7598 277.5,121.5C 222.833,121.5 168.167,121.5 113.5,121.5C 106.309,97.7598 98.8092,74.0931 91,50.5C 88.1552,40.6966 91.3219,33.8633 100.5,30C 117.833,29.6667 135.167,29.3333 152.5,29C 158.874,13.3321 170.207,3.49876 186.5,-0.5 Z"/></g>
<g><path style="opacity:0.988" fill="#000000" d="M 229.5,511.5 C 206.5,511.5 183.5,511.5 160.5,511.5C 129.57,509.839 99.5696,503.339 70.5,492C 28.5881,473.255 4.92141,441.088 -0.5,395.5C -0.5,382.833 -0.5,370.167 -0.5,357.5C 8.37901,291.054 40.2123,238.72 95,200.5C 94.1136,196.507 92.7803,192.507 91,188.5C 88.2962,170.395 95.4628,158.228 112.5,152C 168.891,151.012 225.225,151.346 281.5,153C 296.478,160.12 302.645,171.953 300,188.5C 299.097,192.805 297.263,196.639 294.5,200C 304.734,205.955 314.068,213.122 322.5,221.5C 299.888,241.29 295.388,264.623 309,291.5C 311.692,294.692 314.192,298.025 316.5,301.5C 299.439,321.441 296.939,343.108 309,366.5C 311.692,369.692 314.192,373.025 316.5,376.5C 299.439,396.441 296.939,418.108 309,441.5C 311.692,444.692 314.192,448.025 316.5,451.5C 304.28,465.165 299.28,481.165 301.5,499.5C 277.764,505.84 253.764,509.84 229.5,511.5 Z M 190.5,242.5 C 201.422,241.197 207.922,245.864 210,256.5C 210.333,264.167 210.667,271.833 211,279.5C 232.985,289.474 241.651,306.141 237,329.5C 228.701,337.677 220.701,337.344 213,328.5C 211.263,324.351 210.263,320.017 210,315.5C 204.605,305.591 196.772,303.091 186.5,308C 176.942,317.691 177.609,326.691 188.5,335C 206.365,335.019 220.865,341.852 232,355.5C 244.575,378.186 241.408,398.353 222.5,416C 218.748,418.293 214.914,420.46 211,422.5C 210.758,428.884 210.092,435.218 209,441.5C 204.56,450.296 197.727,452.796 188.5,449C 186,447.833 184.167,446 183,443.5C 181.01,436.677 180.01,429.677 180,422.5C 159.579,413.31 150.246,397.644 152,375.5C 159.174,364.812 167.507,363.812 177,372.5C 178.789,378.557 180.789,384.557 183,390.5C 189.789,397.369 197.289,398.202 205.5,393C 210.089,388.034 211.589,382.2 210,375.5C 208.939,372.438 207.106,369.938 204.5,368C 195.865,366.001 187.198,364.001 178.5,362C 155.845,350.521 147.345,332.354 153,307.5C 157.544,294.123 166.377,284.789 179.5,279.5C 180.146,270.138 180.979,260.804 182,251.5C 183.688,247.315 186.521,244.315 190.5,242.5 Z"/></g>
<g><path style="opacity:0.99" fill="#000000" d="M 511.5,257.5 C 511.5,261.833 511.5,266.167 511.5,270.5C 508.684,278.148 503.35,283.315 495.5,286C 445.833,286.667 396.167,286.667 346.5,286C 333.39,280.954 328.223,271.454 331,257.5C 333.5,249.667 338.667,244.5 346.5,242C 396.167,241.333 445.833,241.333 495.5,242C 503.35,244.685 508.684,249.852 511.5,257.5 Z"/></g>
<g><path style="opacity:0.99" fill="#000000" d="M 511.5,332.5 C 511.5,336.833 511.5,341.167 511.5,345.5C 508.684,353.148 503.35,358.315 495.5,361C 445.833,361.667 396.167,361.667 346.5,361C 333.39,355.954 328.223,346.454 331,332.5C 333.5,324.667 338.667,319.5 346.5,317C 396.167,316.333 445.833,316.333 495.5,317C 503.35,319.685 508.684,324.852 511.5,332.5 Z"/></g>
<g><path style="opacity:0.99" fill="#000000" d="M 511.5,407.5 C 511.5,411.833 511.5,416.167 511.5,420.5C 508.684,428.148 503.35,433.315 495.5,436C 445.833,436.667 396.167,436.667 346.5,436C 333.39,430.954 328.223,421.454 331,407.5C 333.5,399.667 338.667,394.5 346.5,392C 396.167,391.333 445.833,391.333 495.5,392C 503.35,394.685 508.684,399.852 511.5,407.5 Z"/></g>
<g><path style="opacity:0.99" fill="#000000" d="M 511.5,482.5 C 511.5,486.833 511.5,491.167 511.5,495.5C 508.5,503.167 503.167,508.5 495.5,511.5C 445.833,511.5 396.167,511.5 346.5,511.5C 330.554,503.837 326.387,491.837 334,475.5C 337.092,471.072 341.259,468.239 346.5,467C 396.167,466.333 445.833,466.333 495.5,467C 503.35,469.685 508.684,474.852 511.5,482.5 Z"/></g>
</svg>
