<?xml version="1.0" standalone="no"?>
<!DOCTYPE svg PUBLIC "-//W3C//DTD SVG 20010904//EN"
 "http://www.w3.org/TR/2001/REC-SVG-20010904/DTD/svg10.dtd">
<svg version="1.0" xmlns="http://www.w3.org/2000/svg"
 width="512.000000pt" height="512.000000pt" viewBox="0 0 512.000000 512.000000"
 preserveAspectRatio="xMidYMid meet">

<g transform="translate(0.000000,512.000000) scale(0.100000,-0.100000)"
fill="#000000" stroke="none">
<path d="M2358 4991 c-259 -57 -491 -224 -624 -450 -289 -492 -87 -1127 434
-1363 124 -57 240 -80 392 -80 112 0 152 5 232 25 348 91 613 357 700 703 31
122 31 342 0 456 -93 343 -335 595 -669 694 -122 36 -336 43 -465 15z m253
-207 c39 -19 59 -68 59 -139 l0 -55 111 0 c129 0 169 -13 193 -65 9 -18 16
-38 16 -45 0 -7 -7 -27 -16 -45 -28 -60 -53 -65 -324 -65 l-242 0 -29 -29
c-31 -32 -38 -79 -18 -124 21 -46 44 -52 219 -57 199 -7 242 -21 319 -106 173
-189 66 -489 -188 -530 l-41 -7 0 -54 c0 -98 -40 -153 -110 -153 -71 0 -110
55 -110 155 l0 55 -115 0 c-135 0 -168 12 -191 67 -19 43 -5 93 33 123 24 19
40 20 260 20 251 0 285 5 317 51 9 13 16 39 16 59 0 20 -7 46 -16 59 -29 41
-72 51 -223 51 -169 0 -225 16 -296 86 -100 97 -128 237 -72 359 47 102 124
162 237 186 l50 11 0 52 c0 72 17 114 54 137 38 23 67 24 107 3z"/>
<path d="M1013 3067 l-583 -292 0 -162 0 -163 2130 0 2130 0 0 163 0 162 -590
295 -591 295 -27 -35 c-88 -114 -199 -209 -344 -296 l-93 -56 186 7 c153 5
193 4 222 -9 37 -15 67 -58 67 -96 0 -37 -30 -81 -65 -96 -51 -21 -1739 -21
-1790 0 -35 15 -65 59 -65 96 0 37 30 81 65 96 25 10 81 14 212 14 l178 0 -88
53 c-114 68 -209 147 -287 238 -35 41 -68 75 -74 76 -6 1 -273 -129 -593 -290z"/>
<path d="M750 2135 l0 -105 105 0 105 0 0 -535 0 -535 -105 0 -105 0 0 -105 0
-105 425 0 425 0 0 105 0 105 -105 0 -105 0 0 535 0 535 105 0 105 0 0 105 0
105 -425 0 -425 0 0 -105z"/>
<path d="M2130 2135 l0 -104 108 -3 107 -3 3 -532 2 -533 -110 0 -110 0 0
-105 0 -105 430 0 430 0 0 105 0 105 -110 0 -110 0 2 533 3 532 108 3 107 3 0
104 0 105 -430 0 -430 0 0 -105z"/>
<path d="M3520 2135 l0 -105 105 0 105 0 0 -535 0 -535 -105 0 -105 0 0 -105
0 -105 425 0 425 0 0 105 0 105 -105 0 -105 0 0 535 0 535 105 0 105 0 0 105
0 105 -425 0 -425 0 0 -105z"/>
<path d="M430 320 l0 -210 2130 0 2130 0 0 210 0 210 -2130 0 -2130 0 0 -210z"/>
</g>
</svg>
